<svg
xmlns="http://www.w3.org/2000/svg"
xmlns:xlink="http://www.w3.org/1999/xlink"
version="1.1"
id="genomeplot"
width="1024px"
height="254px"
style="margin: auto; font-family: Helvetica, sans-serif;">
<style type="text/css"><![CDATA[
.plot-area {fill: #eef6ff; fill-opacity: 0.8;}
  .title-left {text-anchor: end; fill: #000000; font-size: 7.8px;}
  .label-y {text-anchor: end; fill: #666666; font-size: 8px;}
  .gridline {stroke-width: 1px; stroke: #c0e3ee; opacity: 0.8 ; }
  .marker {text-anchor: middle; fill: #dd3333; font-size: 10px;}
  .footer-r {text-anchor: end; fill: #999999; font-size: 10px;}
  .footer-l {text-anchor: start; fill: #999999; font-size: 10px;}
]]></style>
<rect x="0" y="0" width="1024" height="254" style="fill: #ffffff" />

<linearGradient id="genomeplotgpos100" x1="0%" x2="0%" y1="0%" y2="80%" spreadMethod="reflect">
  <stop offset="0%" stop-color="rgb(39,39,39)" />
  <stop offset="100%" stop-color="rgb(0,0,0)" />
</linearGradient>
<linearGradient id="genomeplotgpos75" x1="0%" x2="0%" y1="0%" y2="80%" spreadMethod="reflect">
  <stop offset="0%" stop-color="rgb(87,87,87)" />
  <stop offset="100%" stop-color="rgb(39,39,39)" />
</linearGradient>
<linearGradient id="genomeplotgpos50" x1="0%" x2="0%" y1="0%" y2="80%" spreadMethod="reflect">
  <stop offset="0%" stop-color="rgb(196,196,196)" />
  <stop offset="100%" stop-color="rgb(111,111,111)" />
</linearGradient>
<linearGradient id="genomeplotgpos25" x1="0%" x2="0%" y1="0%" y2="80%" spreadMethod="reflect">
  <stop offset="0%" stop-color="rgb(223,223,223)" />
  <stop offset="100%" stop-color="rgb(196,196,196)" />
</linearGradient>
<linearGradient id="genomeplotgneg" x1="0%" x2="0%" y1="0%" y2="80%" spreadMethod="reflect">
  <stop offset="0%" stop-color="white" />
  <stop offset="100%" stop-color="rgb(223,223,223)" />
</linearGradient>
<linearGradient id="genomeplotgvar" x1="0%" x2="0%" y1="0%" y2="80%" spreadMethod="reflect">
  <stop offset="0%" stop-color="rgb(196,196,196)" />
  <stop offset="100%" stop-color="rgb(111,111,111)" />
</linearGradient>
<linearGradient id="genomeplotstalk" x1="0%" x2="0%" y1="0%" y2="80%" spreadMethod="reflect">
  <stop offset="0%" stop-color="rgb(39,39,39)" />
  <stop offset="100%" stop-color="rgb(0,0,0)" />
</linearGradient>
<linearGradient id="genomeplotacen" x1="0%" x2="0%" y1="0%" y2="80%" spreadMethod="reflect">
  <stop offset="0%" stop-color="rgb(163,55,247)" />
  <stop offset="100%" stop-color="rgb(138,43,226)" />
</linearGradient>
<text x="527.0" y="41" style="text-anchor: middle; font-size: 16px">Search Results (progenetix)</text>
<text x="167.51913396170477" y="73" style="text-anchor: middle; font-size: 10px">7</text>
<text x="385.52516056112376" y="73" style="text-anchor: middle; font-size: 10px">8</text>
<text x="588.7368554548399" y="73" style="text-anchor: middle; font-size: 10px">9</text>
<text x="783.9401673732651" y="73" style="text-anchor: middle; font-size: 10px">10</text>
<text x="940.2093385178442" y="73" style="text-anchor: middle; font-size: 10px">17</text>
<rect x="55" y="77.4" width="4.0" height="11.2" style="fill: url(#genomeplotgneg); " />
<rect x="59.0" y="76" width="2.4" height="14" style="fill: url(#genomeplotgpos25); " />
<rect x="61.4" y="76" width="3.8" height="14" style="fill: url(#genomeplotgneg); " />
<rect x="65.2" y="76" width="9.2" height="14" style="fill: url(#genomeplotgpos100); " />
<rect x="74.3" y="76" width="4.0" height="14" style="fill: url(#genomeplotgneg); " />
<rect x="78.3" y="76" width="6.2" height="14" style="fill: url(#genomeplotgpos100); " />
<rect x="84.5" y="76" width="6.5" height="14" style="fill: url(#genomeplotgneg); " />
<rect x="91.0" y="76" width="3.4" height="14" style="fill: url(#genomeplotgpos50); " />
<rect x="94.4" y="76" width="1.3" height="14" style="fill: url(#genomeplotgneg); " />
<rect x="95.7" y="76" width="8.6" height="14" style="fill: url(#genomeplotgpos75); " />
<rect x="104.3" y="76" width="3.1" height="14" style="fill: url(#genomeplotgneg); " />
<rect x="107.4" y="76" width="8.8" height="14" style="fill: url(#genomeplotgpos75); " />
<rect x="116.2" y="76" width="3.0" height="14" style="fill: url(#genomeplotgneg); " />
<rect x="119.1" y="76" width="5.1" height="14" style="fill: url(#genomeplotgpos75); " />
<rect x="124.2" y="76" width="2.1" height="14" style="fill: url(#genomeplotgneg); " />
<rect x="126.3" y="76" width="4.8" height="14" style="fill: url(#genomeplotgpos75); " />
<rect x="131.1" y="76" width="5.9" height="14" style="fill: url(#genomeplotgneg); " />
<rect x="137.1" y="78.8" width="2.8" height="8.4" style="fill: url(#genomeplotacen); " />
<rect x="139.9" y="78.8" width="2.8" height="8.4" style="fill: url(#genomeplotacen); " />
<rect x="142.7" y="76" width="7.6" height="14" style="fill: url(#genomeplotgneg); " />
<rect x="150.3" y="76" width="7.3" height="14" style="fill: url(#genomeplotgpos50); " />
<rect x="157.7" y="76" width="7.3" height="14" style="fill: url(#genomeplotgneg); " />
<rect x="165.0" y="76" width="12.4" height="14" style="fill: url(#genomeplotgpos100); " />
<rect x="177.4" y="76" width="2.5" height="14" style="fill: url(#genomeplotgneg); " />
<rect x="180.0" y="76" width="4.2" height="14" style="fill: url(#genomeplotgpos75); " />
<rect x="184.2" y="76" width="2.5" height="14" style="fill: url(#genomeplotgneg); " />
<rect x="186.8" y="76" width="7.2" height="14" style="fill: url(#genomeplotgpos75); " />
<rect x="194.0" y="76" width="8.2" height="14" style="fill: url(#genomeplotgneg); " />
<rect x="202.2" y="76" width="1.0" height="14" style="fill: url(#genomeplotgpos50); " />
<rect x="203.1" y="76" width="4.1" height="14" style="fill: url(#genomeplotgneg); " />
<rect x="207.2" y="76" width="10.2" height="14" style="fill: url(#genomeplotgpos75); " />
<rect x="217.4" y="76" width="3.8" height="14" style="fill: url(#genomeplotgneg); " />
<rect x="221.2" y="76" width="5.2" height="14" style="fill: url(#genomeplotgpos75); " />
<rect x="226.4" y="76" width="3.8" height="14" style="fill: url(#genomeplotgneg); " />
<rect x="230.3" y="76" width="4.8" height="14" style="fill: url(#genomeplotgpos75); " />
<rect x="235.1" y="76" width="3.0" height="14" style="fill: url(#genomeplotgneg); " />
<rect x="238.0" y="76" width="1.7" height="14" style="fill: url(#genomeplotgpos25); " />
<rect x="239.7" y="76" width="3.0" height="14" style="fill: url(#genomeplotgneg); " />
<rect x="242.7" y="76" width="7.9" height="14" style="fill: url(#genomeplotgpos50); " />
<rect x="250.6" y="76" width="6.9" height="14" style="fill: url(#genomeplotgneg); " />
<rect x="257.5" y="76" width="6.8" height="14" style="fill: url(#genomeplotgpos75); " />
<rect x="264.3" y="76" width="6.5" height="14" style="fill: url(#genomeplotgneg); " />
<rect x="270.8" y="77.4" width="3.4" height="11.2" style="fill: url(#genomeplotgpos25); " />
<rect x="274.2" y="76" width="5.9" height="14" style="fill: url(#genomeplotgneg); " />
<rect x="283.0" y="77.4" width="3.2" height="11.2" style="fill: url(#genomeplotgneg); " />
<rect x="286.3" y="76" width="5.6" height="14" style="fill: url(#genomeplotgpos75); " />
<rect x="291.9" y="76" width="9.2" height="14" style="fill: url(#genomeplotgneg); " />
<rect x="301.1" y="76" width="9.0" height="14" style="fill: url(#genomeplotgpos100); " />
<rect x="310.2" y="76" width="6.1" height="14" style="fill: url(#genomeplotgneg); " />
<rect x="316.2" y="76" width="5.6" height="14" style="fill: url(#genomeplotgpos50); " />
<rect x="321.9" y="76" width="2.1" height="14" style="fill: url(#genomeplotgneg); " />
<rect x="324.0" y="76" width="10.9" height="14" style="fill: url(#genomeplotgpos75); " />
<rect x="334.9" y="76" width="2.5" height="14" style="fill: url(#genomeplotgneg); " />
<rect x="337.4" y="76" width="2.0" height="14" style="fill: url(#genomeplotgpos25); " />
<rect x="339.4" y="76" width="4.7" height="14" style="fill: url(#genomeplotgneg); " />
<rect x="344.0" y="78.8" width="2.8" height="8.4" style="fill: url(#genomeplotacen); " />
<rect x="346.9" y="78.8" width="2.8" height="8.4" style="fill: url(#genomeplotacen); " />
<rect x="349.7" y="76" width="5.8" height="14" style="fill: url(#genomeplotgneg); " />
<rect x="355.5" y="76" width="0.6" height="14" style="fill: url(#genomeplotgpos75); " />
<rect x="356.1" y="76" width="4.1" height="14" style="fill: url(#genomeplotgneg); " />
<rect x="360.1" y="76" width="8.5" height="14" style="fill: url(#genomeplotgpos50); " />
<rect x="368.6" y="76" width="1.0" height="14" style="fill: url(#genomeplotgneg); " />
<rect x="369.6" y="76" width="5.4" height="14" style="fill: url(#genomeplotgpos50); " />
<rect x="375.0" y="76" width="2.8" height="14" style="fill: url(#genomeplotgneg); " />
<rect x="377.8" y="76" width="3.5" height="14" style="fill: url(#genomeplotgpos50); " />
<rect x="381.3" y="76" width="3.4" height="14" style="fill: url(#genomeplotgneg); " />
<rect x="384.7" y="76" width="3.7" height="14" style="fill: url(#genomeplotgpos100); " />
<rect x="388.4" y="76" width="0.1" height="14" style="fill: url(#genomeplotgneg); " />
<rect x="388.5" y="76" width="12.4" height="14" style="fill: url(#genomeplotgpos75); " />
<rect x="401.0" y="76" width="3.4" height="14" style="fill: url(#genomeplotgneg); " />
<rect x="404.4" y="76" width="9.0" height="14" style="fill: url(#genomeplotgpos100); " />
<rect x="413.4" y="76" width="7.9" height="14" style="fill: url(#genomeplotgneg); " />
<rect x="421.3" y="76" width="3.7" height="14" style="fill: url(#genomeplotgpos25); " />
<rect x="425.0" y="76" width="6.5" height="14" style="fill: url(#genomeplotgneg); " />
<rect x="431.5" y="76" width="6.2" height="14" style="fill: url(#genomeplotgpos75); " />
<rect x="437.7" y="76" width="2.3" height="14" style="fill: url(#genomeplotgneg); " />
<rect x="439.9" y="76" width="7.9" height="14" style="fill: url(#genomeplotgpos100); " />
<rect x="447.8" y="76" width="2.3" height="14" style="fill: url(#genomeplotgneg); " />
<rect x="450.1" y="76" width="4.5" height="14" style="fill: url(#genomeplotgpos50); " />
<rect x="454.6" y="76" width="6.8" height="14" style="fill: url(#genomeplotgneg); " />
<rect x="461.4" y="76" width="5.8" height="14" style="fill: url(#genomeplotgpos50); " />
<rect x="467.2" y="76" width="7.1" height="14" style="fill: url(#genomeplotgneg); " />
<rect x="474.3" y="77.4" width="4.9" height="11.2" style="fill: url(#genomeplotgpos75); " />
<rect x="479.2" y="76" width="8.8" height="14" style="fill: url(#genomeplotgneg); " />
<rect x="491.0" y="77.4" width="3.1" height="11.2" style="fill: url(#genomeplotgneg); " />
<rect x="494.1" y="76" width="3.4" height="14" style="fill: url(#genomeplotgpos25); " />
<rect x="497.5" y="76" width="6.2" height="14" style="fill: url(#genomeplotgneg); " />
<rect x="503.7" y="76" width="7.3" height="14" style="fill: url(#genomeplotgpos75); " />
<rect x="511.1" y="76" width="3.4" height="14" style="fill: url(#genomeplotgneg); " />
<rect x="514.5" y="76" width="2.7" height="14" style="fill: url(#genomeplotgpos25); " />
<rect x="517.1" y="76" width="2.0" height="14" style="fill: url(#genomeplotgneg); " />
<rect x="519.1" y="76" width="8.0" height="14" style="fill: url(#genomeplotgpos100); " />
<rect x="527.2" y="76" width="3.4" height="14" style="fill: url(#genomeplotgneg); " />
<rect x="530.6" y="76" width="7.3" height="14" style="fill: url(#genomeplotgpos100); " />
<rect x="537.9" y="76" width="4.4" height="14" style="fill: url(#genomeplotgneg); " />
<rect x="542.3" y="76" width="2.3" height="14" style="fill: url(#genomeplotgpos25); " />
<rect x="544.5" y="76" width="1.6" height="14" style="fill: url(#genomeplotgneg); " />
<rect x="546.1" y="76" width="1.4" height="14" style="fill: url(#genomeplotgpos50); " />
<rect x="547.5" y="76" width="3.1" height="14" style="fill: url(#genomeplotgneg); " />
<rect x="550.6" y="78.8" width="1.1" height="8.4" style="fill: url(#genomeplotacen); " />
<rect x="551.7" y="78.8" width="3.5" height="8.4" style="fill: url(#genomeplotacen); " />
<rect x="555.3" y="76" width="22.6" height="14" style="fill: url(#genomeplotgvar); " />
<rect x="577.9" y="76" width="4.9" height="14" style="fill: url(#genomeplotgneg); " />
<rect x="582.8" y="76" width="6.1" height="14" style="fill: url(#genomeplotgpos25); " />
<rect x="588.9" y="76" width="2.8" height="14" style="fill: url(#genomeplotgneg); " />
<rect x="591.7" y="76" width="7.5" height="14" style="fill: url(#genomeplotgpos50); " />
<rect x="599.2" y="76" width="2.7" height="14" style="fill: url(#genomeplotgneg); " />
<rect x="601.9" y="76" width="4.2" height="14" style="fill: url(#genomeplotgpos50); " />
<rect x="606.1" y="76" width="4.0" height="14" style="fill: url(#genomeplotgneg); " />
<rect x="610.1" y="76" width="4.9" height="14" style="fill: url(#genomeplotgpos50); " />
<rect x="615.0" y="76" width="2.0" height="14" style="fill: url(#genomeplotgneg); " />
<rect x="617.0" y="76" width="2.8" height="14" style="fill: url(#genomeplotgpos25); " />
<rect x="619.8" y="76" width="3.8" height="14" style="fill: url(#genomeplotgneg); " />
<rect x="623.6" y="76" width="3.7" height="14" style="fill: url(#genomeplotgpos25); " />
<rect x="627.3" y="76" width="4.7" height="14" style="fill: url(#genomeplotgneg); " />
<rect x="632.0" y="76" width="7.9" height="14" style="fill: url(#genomeplotgpos100); " />
<rect x="639.9" y="76" width="4.4" height="14" style="fill: url(#genomeplotgneg); " />
<rect x="644.2" y="76" width="5.1" height="14" style="fill: url(#genomeplotgpos25); " />
<rect x="649.3" y="76" width="4.0" height="14" style="fill: url(#genomeplotgneg); " />
<rect x="653.3" y="76" width="6.9" height="14" style="fill: url(#genomeplotgpos75); " />
<rect x="660.2" y="76" width="4.7" height="14" style="fill: url(#genomeplotgneg); " />
<rect x="664.9" y="76" width="6.2" height="14" style="fill: url(#genomeplotgpos25); " />
<rect x="671.1" y="76" width="4.4" height="14" style="fill: url(#genomeplotgneg); " />
<rect x="675.5" y="76" width="0.7" height="14" style="fill: url(#genomeplotgpos25); " />
<rect x="676.2" y="76" width="2.8" height="14" style="fill: url(#genomeplotgneg); " />
<rect x="679.0" y="77.4" width="2.0" height="11.2" style="fill: url(#genomeplotgpos25); " />
<rect x="681.0" y="76" width="5.5" height="14" style="fill: url(#genomeplotgneg); " />
<rect x="689.5" y="77.4" width="4.2" height="11.2" style="fill: url(#genomeplotgneg); " />
<rect x="693.7" y="76" width="1.1" height="14" style="fill: url(#genomeplotgpos25); " />
<rect x="694.8" y="76" width="4.0" height="14" style="fill: url(#genomeplotgneg); " />
<rect x="698.8" y="76" width="7.9" height="14" style="fill: url(#genomeplotgpos75); " />
<rect x="706.7" y="76" width="7.2" height="14" style="fill: url(#genomeplotgneg); " />
<rect x="713.9" y="76" width="1.4" height="14" style="fill: url(#genomeplotgpos75); " />
<rect x="715.3" y="76" width="0.1" height="14" style="fill: url(#genomeplotgneg); " />
<rect x="715.4" y="76" width="5.5" height="14" style="fill: url(#genomeplotgpos75); " />
<rect x="721.0" y="76" width="2.8" height="14" style="fill: url(#genomeplotgneg); " />
<rect x="723.8" y="76" width="7.1" height="14" style="fill: url(#genomeplotgpos50); " />
<rect x="730.8" y="76" width="2.5" height="14" style="fill: url(#genomeplotgneg); " />
<rect x="733.4" y="76" width="4.4" height="14" style="fill: url(#genomeplotgpos25); " />
<rect x="737.8" y="76" width="5.4" height="14" style="fill: url(#genomeplotgneg); " />
<rect x="743.1" y="78.8" width="2.5" height="8.4" style="fill: url(#genomeplotacen); " />
<rect x="745.7" y="78.8" width="2.5" height="8.4" style="fill: url(#genomeplotacen); " />
<rect x="748.2" y="76" width="5.5" height="14" style="fill: url(#genomeplotgneg); " />
<rect x="753.7" y="76" width="4.4" height="14" style="fill: url(#genomeplotgpos25); " />
<rect x="758.1" y="76" width="3.5" height="14" style="fill: url(#genomeplotgneg); " />
<rect x="761.6" y="76" width="11.7" height="14" style="fill: url(#genomeplotgpos100); " />
<rect x="773.4" y="76" width="4.8" height="14" style="fill: url(#genomeplotgneg); " />
<rect x="778.2" y="76" width="8.5" height="14" style="fill: url(#genomeplotgpos100); " />
<rect x="786.6" y="76" width="6.1" height="14" style="fill: url(#genomeplotgneg); " />
<rect x="792.7" y="76" width="4.0" height="14" style="fill: url(#genomeplotgpos50); " />
<rect x="796.7" y="76" width="6.2" height="14" style="fill: url(#genomeplotgneg); " />
<rect x="802.9" y="76" width="8.2" height="14" style="fill: url(#genomeplotgpos100); " />
<rect x="811.1" y="76" width="2.3" height="14" style="fill: url(#genomeplotgneg); " />
<rect x="813.3" y="76" width="4.8" height="14" style="fill: url(#genomeplotgpos75); " />
<rect x="818.1" y="76" width="1.7" height="14" style="fill: url(#genomeplotgneg); " />
<rect x="819.8" y="76" width="4.2" height="14" style="fill: url(#genomeplotgpos50); " />
<rect x="824.1" y="76" width="3.1" height="14" style="fill: url(#genomeplotgneg); " />
<rect x="827.2" y="76" width="3.7" height="14" style="fill: url(#genomeplotgpos50); " />
<rect x="830.8" y="76" width="1.6" height="14" style="fill: url(#genomeplotgneg); " />
<rect x="832.4" y="76" width="2.7" height="14" style="fill: url(#genomeplotgpos25); " />
<rect x="835.1" y="76" width="1.3" height="14" style="fill: url(#genomeplotgneg); " />
<rect x="836.3" y="76" width="8.6" height="14" style="fill: url(#genomeplotgpos100); " />
<rect x="845.0" y="76" width="4.2" height="14" style="fill: url(#genomeplotgneg); " />
<rect x="849.2" y="76" width="5.9" height="14" style="fill: url(#genomeplotgpos75); " />
<rect x="855.1" y="76" width="3.7" height="14" style="fill: url(#genomeplotgneg); " />
<rect x="858.8" y="76" width="2.1" height="14" style="fill: url(#genomeplotgpos50); " />
<rect x="860.9" y="76" width="6.1" height="14" style="fill: url(#genomeplotgneg); " />
<rect x="867.0" y="77.4" width="4.4" height="11.2" style="fill: url(#genomeplotgpos50); " />
<rect x="871.4" y="76" width="7.1" height="14" style="fill: url(#genomeplotgneg); " />
<rect x="881.4" y="77.4" width="4.8" height="11.2" style="fill: url(#genomeplotgneg); " />
<rect x="886.2" y="76" width="4.4" height="14" style="fill: url(#genomeplotgpos50); " />
<rect x="890.6" y="76" width="6.1" height="14" style="fill: url(#genomeplotgneg); " />
<rect x="896.7" y="76" width="7.5" height="14" style="fill: url(#genomeplotgpos75); " />
<rect x="904.2" y="76" width="9.3" height="14" style="fill: url(#genomeplotgneg); " />
<rect x="913.5" y="78.8" width="3.4" height="8.4" style="fill: url(#genomeplotacen); " />
<rect x="916.9" y="78.8" width="3.2" height="8.4" style="fill: url(#genomeplotacen); " />
<rect x="920.1" y="76" width="8.6" height="14" style="fill: url(#genomeplotgneg); " />
<rect x="928.7" y="76" width="8.9" height="14" style="fill: url(#genomeplotgpos50); " />
<rect x="937.6" y="76" width="0.6" height="14" style="fill: url(#genomeplotgneg); " />
<rect x="938.2" y="76" width="3.7" height="14" style="fill: url(#genomeplotgpos25); " />
<rect x="941.9" y="76" width="5.6" height="14" style="fill: url(#genomeplotgneg); " />
<rect x="947.5" y="76" width="3.5" height="14" style="fill: url(#genomeplotgpos25); " />
<rect x="951.0" y="76" width="4.0" height="14" style="fill: url(#genomeplotgneg); " />
<rect x="955.0" y="76" width="10.5" height="14" style="fill: url(#genomeplotgpos75); " />
<rect x="965.4" y="76" width="1.0" height="14" style="fill: url(#genomeplotgneg); " />
<rect x="966.4" y="76" width="4.1" height="14" style="fill: url(#genomeplotgpos75); " />
<rect x="970.5" y="76" width="2.1" height="14" style="fill: url(#genomeplotgneg); " />
<rect x="972.7" y="76" width="2.3" height="14" style="fill: url(#genomeplotgpos50); " />
<rect x="974.9" y="76" width="4.1" height="14" style="fill: url(#genomeplotgneg); " />
<rect x="979.0" y="76" width="5.4" height="14" style="fill: url(#genomeplotgpos75); " />
<rect x="984.4" y="76" width="5.5" height="14" style="fill: url(#genomeplotgneg); " />
<rect x="989.9" y="77.4" width="0.6" height="11.2" style="fill: url(#genomeplotgpos25); " />
<rect x="990.4" y="76" width="8.6" height="14" style="fill: url(#genomeplotgneg); " />
<rect x="55" y="93" width="944" height="100" class="plot-area" />
<line x1="22"  y1="143.0"  x2="999"  y2="143.0" class="gridline" />
<line x1="55" y1="155.5" x2="999" y2="155.5" class="gridline" />
<text x="52" y="159.5" class="label-y">25%</text>
<line x1="55" y1="130.5" x2="999" y2="130.5" class="gridline" />
<text x="52" y="134.5" class="label-y">25%</text>
<line x1="55" y1="168.0" x2="999" y2="168.0" class="gridline" />
<text x="52" y="172.0" class="label-y">50%</text>
<line x1="55" y1="118.0" x2="999" y2="118.0" class="gridline" />
<text x="52" y="122.0" class="label-y">50%</text>
<line x1="55" y1="180.5" x2="999" y2="180.5" class="gridline" />
<text x="52" y="184.5" class="label-y">75%</text>
<line x1="55" y1="105.5" x2="999" y2="105.5" class="gridline" />
<text x="52" y="109.5" class="label-y">75%</text>
<polygon points="55,143.0 55.0,124.5 55.1,116.5 56.6,118.0 58.0,118.0 59.4,119.0 60.8,119.5 62.2,119.5 63.6,119.0 65.0,118.5 66.4,116.5 67.9,116.5 69.3,118.5 70.7,117.5 72.1,118.0 73.5,117.5 74.9,118.0 76.3,117.5 77.7,116.0 79.1,117.5 80.6,118.0 82.0,115.0 83.4,115.5 84.8,116.5 86.2,117.0 87.6,114.5 89.0,116.5 90.4,117.0 91.9,116.0 93.3,112.0 94.7,114.0 96.1,118.0 97.5,116.5 98.9,117.5 100.3,118.0 103.2,118.0 104.6,117.5 106.0,118.0 107.4,118.0 108.8,117.5 114.5,117.5 115.9,117.0 117.3,117.0 118.7,117.5 120.1,117.0 122.9,117.0 124.3,116.5 125.8,116.0 127.2,116.0 128.6,115.5 130.0,116.5 134.2,116.5 135.6,118.5 137.1,118.5 138.5,121.0 141.3,121.0 142.7,112.0 144.1,120.0 145.5,117.5 146.9,119.0 149.8,119.0 151.2,118.0 154.0,118.0 155.4,119.0 156.8,119.0 158.2,118.5 159.6,119.0 161.1,116.0 162.5,119.0 163.9,116.5 165.3,117.0 169.5,117.0 170.9,116.5 178.0,116.5 179.4,117.0 180.8,117.0 182.2,117.5 183.7,117.5 185.1,116.5 186.5,117.5 187.9,116.5 189.3,117.5 190.7,116.5 192.1,117.0 193.5,118.5 195.0,118.5 196.4,119.0 197.8,119.0 199.2,118.0 200.6,119.0 202.0,119.0 203.4,118.5 204.8,117.5 206.3,118.5 207.7,117.5 211.9,117.5 213.3,117.0 214.7,117.5 216.1,118.0 217.6,117.5 219.0,116.0 220.4,118.0 221.8,118.5 223.2,118.0 224.6,117.5 226.0,115.5 227.4,118.5 228.8,118.5 230.3,118.0 231.7,118.5 233.1,117.5 234.5,119.5 235.9,119.0 237.3,117.5 238.7,119.5 243.0,119.5 244.4,120.0 245.8,119.0 247.2,118.5 248.6,120.0 250.0,120.5 251.4,120.5 252.9,121.0 254.3,121.0 255.7,119.5 257.1,119.5 258.5,120.5 259.9,121.0 262.7,121.0 264.2,120.0 265.6,120.5 267.0,121.0 268.4,120.0 269.8,121.5 271.2,120.5 272.6,120.0 274.0,122.0 275.5,119.0 276.9,123.0 278.3,124.0 279.7,143.0 280.0,143.0" fill="#FFC633" stroke-width="0px" />
<polygon points="55,143.0 55.0,143.0 55.1,145.0 56.6,145.5 58.0,144.0 59.4,144.0 60.8,146.0 62.2,144.0 63.6,146.0 65.0,144.0 66.4,144.5 67.9,144.0 70.7,144.0 72.1,144.5 73.5,144.0 74.9,144.0 76.3,143.5 83.4,143.5 84.8,144.0 86.2,143.5 90.4,143.5 91.9,144.0 93.3,144.0 94.7,143.5 96.1,144.5 97.5,144.0 98.9,143.5 103.2,143.5 104.6,144.0 106.0,143.5 107.4,143.5 108.8,145.0 110.2,143.5 115.9,143.5 117.3,144.5 118.7,143.5 120.1,143.5 121.5,144.0 125.8,144.0 127.2,143.5 132.8,143.5 134.2,146.5 135.6,144.0 137.1,143.5 139.9,143.5 141.3,144.0 142.7,147.0 144.1,143.5 145.5,144.0 146.9,143.5 155.4,143.5 156.8,144.0 158.2,144.0 159.6,143.5 161.1,146.0 162.5,145.5 163.9,144.0 165.3,143.5 166.7,143.0 175.2,143.0 176.6,144.0 178.0,143.5 182.2,143.5 183.7,144.0 185.1,143.5 186.5,143.5 187.9,144.0 189.3,143.0 190.7,143.0 192.1,143.5 193.5,144.0 195.0,144.5 196.4,143.5 197.8,144.0 199.2,144.0 200.6,143.5 203.4,143.5 204.8,144.0 206.3,144.0 207.7,143.5 211.9,143.5 213.3,144.0 214.7,143.5 223.2,143.5 224.6,144.0 226.0,143.5 227.4,144.0 228.8,143.5 231.7,143.5 233.1,144.0 235.9,144.0 237.3,146.5 238.7,143.5 243.0,143.5 244.4,144.0 245.8,143.5 247.2,143.5 248.6,144.0 250.0,144.0 251.4,143.5 252.9,144.0 254.3,143.5 255.7,145.0 257.1,148.5 258.5,144.0 259.9,143.5 262.7,143.5 264.2,144.0 267.0,144.0 268.4,143.5 269.8,143.5 271.2,144.0 272.6,143.5 275.5,143.5 276.9,144.5 278.3,144.5 279.7,143.0 280.0,143.0" fill="#33A0FF" stroke-width="0px" />
<polygon points="283.0,143.0 283.0,142.0 283.3,140.5 284.7,138.5 286.1,142.5 287.6,142.5 289.0,141.5 290.4,142.5 291.8,140.0 293.2,131.0 294.6,141.5 296.0,142.0 297.4,140.0 298.9,130.5 300.3,139.0 301.7,141.5 307.3,141.5 308.7,142.0 313.0,142.0 314.4,139.0 315.8,140.5 317.2,139.0 318.6,140.5 320.0,141.5 321.5,141.0 322.9,142.0 324.3,141.5 325.7,142.0 327.1,141.5 328.5,142.0 329.9,142.0 331.3,141.5 332.7,141.0 334.2,141.5 335.6,138.5 337.0,141.0 338.4,141.0 339.8,142.0 341.2,141.0 342.6,142.0 345.5,142.0 346.9,141.5 348.3,141.5 349.7,140.5 351.1,139.5 352.5,140.0 353.9,141.0 355.3,140.5 359.6,140.5 361.0,138.5 362.4,141.0 363.8,140.5 365.2,141.0 368.1,141.0 369.5,140.5 370.9,141.5 373.7,141.5 375.1,140.5 376.5,141.5 377.9,140.0 379.4,141.0 380.8,141.0 382.2,140.5 383.6,141.0 385.0,140.5 386.4,141.0 392.1,141.0 393.5,140.5 394.9,140.5 396.3,141.0 397.7,141.0 399.1,136.5 400.5,139.5 402.0,141.0 403.4,140.0 404.8,140.0 406.2,140.5 411.8,140.5 413.2,139.5 414.7,141.0 416.1,141.0 417.5,139.5 418.9,140.5 420.3,139.0 421.7,139.0 423.1,138.5 424.5,140.5 426.0,140.5 427.4,138.0 428.8,140.5 430.2,139.0 431.6,139.5 433.0,140.5 437.3,140.5 438.7,140.0 440.1,140.5 447.1,140.5 448.6,139.0 458.4,139.0 459.9,139.5 461.3,138.5 462.7,138.5 464.1,137.5 465.5,139.5 466.9,139.5 468.3,139.0 469.7,140.0 471.2,139.5 472.6,139.5 474.0,139.0 475.4,140.0 476.8,140.5 478.2,140.5 479.6,140.0 481.0,138.5 482.4,141.0 483.9,140.5 485.3,140.5 486.7,129.0 488.0,143.0" fill="#FFC633" stroke-width="0px" />
<polygon points="283.0,143.0 283.0,148.5 284.7,148.5 286.1,146.5 287.6,147.0 289.0,146.0 290.4,146.0 291.8,147.0 293.2,146.5 294.6,145.0 296.0,145.5 297.4,146.5 298.9,147.0 300.3,146.0 301.7,145.5 314.4,145.5 315.8,146.0 317.2,145.5 318.6,146.0 320.0,146.0 321.5,146.5 322.9,146.5 324.3,145.5 331.3,145.5 332.7,145.0 334.2,145.5 337.0,145.5 338.4,146.0 339.8,145.0 341.2,144.5 342.6,144.0 345.5,144.0 346.9,143.5 348.3,144.0 375.1,144.0 376.5,144.5 377.9,144.5 379.4,144.0 382.2,144.0 383.6,144.5 385.0,144.0 386.4,144.0 387.8,144.5 389.2,144.0 403.4,144.0 404.8,144.5 406.2,145.0 407.6,144.0 410.4,144.0 411.8,144.5 413.2,144.0 414.7,144.0 416.1,145.0 417.5,144.5 418.9,144.5 420.3,144.0 427.4,144.0 428.8,144.5 430.2,144.0 431.6,144.5 433.0,144.0 442.9,144.0 444.3,144.5 445.7,144.0 448.6,144.0 450.0,143.5 457.0,143.5 458.4,144.5 459.9,143.5 461.3,144.5 462.7,144.0 464.1,144.5 475.4,144.5 476.8,145.0 478.2,145.0 479.6,145.5 481.0,145.5 482.4,144.5 483.9,145.0 485.3,144.5 486.7,146.5 488.0,143.0" fill="#33A0FF" stroke-width="0px" />
<polygon points="491.0,143.0 491.0,137.5 492.4,139.5 493.8,141.0 495.2,141.0 496.7,139.0 498.1,141.5 500.9,141.5 502.3,142.0 505.1,142.0 506.5,141.5 516.4,141.5 517.8,141.0 519.3,140.5 520.7,140.5 522.1,141.5 524.9,141.5 526.3,141.0 527.7,141.5 529.1,140.5 530.6,140.5 532.0,141.0 536.2,141.0 537.6,140.5 539.0,141.0 540.4,140.5 541.9,141.5 543.3,141.5 544.7,140.5 546.1,141.5 547.5,142.0 550.3,142.0 551.7,142.5 561.6,142.5 563.0,142.0 584.2,142.0 585.6,140.0 587.0,141.0 588.5,141.0 589.9,138.5 616.7,138.5 618.1,138.0 619.5,138.0 620.9,138.5 622.4,139.0 623.8,138.0 625.2,138.0 626.6,139.0 628.0,136.0 629.4,139.0 630.8,138.0 632.2,138.5 633.7,139.0 639.3,139.0 640.7,138.5 642.1,138.0 643.5,138.0 644.9,137.5 646.4,138.5 653.4,138.5 654.8,137.5 656.2,138.0 657.7,138.5 663.3,138.5 664.7,138.0 666.1,138.5 671.8,138.5 673.2,137.5 674.6,138.5 676.0,138.5 677.4,138.0 678.8,138.5 680.3,138.5 681.7,139.0 683.1,138.5 684.5,139.0 685.9,139.0 686.5,143.0" fill="#FFC633" stroke-width="0px" />
<polygon points="491.0,143.0 491.0,157.5 496.7,157.5 498.1,157.0 499.5,158.5 500.9,158.0 502.3,158.0 503.7,158.5 505.1,158.5 506.5,158.0 508.0,158.0 509.4,158.5 510.8,158.5 512.2,157.0 515.0,157.0 516.4,156.5 517.8,157.5 519.3,158.0 520.7,160.0 522.1,158.5 523.5,159.0 524.9,158.5 526.3,158.5 527.7,158.0 529.1,158.0 530.6,156.0 532.0,155.5 536.2,155.5 537.6,153.5 539.0,153.0 540.4,153.5 541.9,153.0 546.1,153.0 547.5,152.0 548.9,151.0 563.0,151.0 564.4,146.0 588.5,146.0 589.9,147.0 591.3,146.5 602.6,146.5 604.0,146.0 605.4,146.5 616.7,146.5 618.1,146.0 633.7,146.0 635.1,145.5 636.5,146.0 650.6,146.0 652.0,147.5 653.4,146.0 671.8,146.0 673.2,146.5 674.6,146.5 676.0,147.0 677.4,146.5 678.8,146.0 680.3,146.5 681.7,146.0 685.9,146.0 686.5,143.0" fill="#33A0FF" stroke-width="0px" />
<polygon points="689.5,143.0 689.5,141.0 690.6,140.5 692.0,140.5 693.4,139.0 694.8,140.0 696.2,140.0 697.7,140.5 699.1,139.5 700.5,134.5 701.9,140.5 703.3,140.5 704.7,139.5 706.1,140.0 707.5,140.0 709.0,140.5 710.4,140.5 711.8,140.0 713.2,140.5 714.6,141.0 716.0,141.5 717.4,141.5 718.8,141.0 720.2,131.5 721.7,140.5 723.1,141.5 724.5,141.5 725.9,140.5 727.3,141.5 728.7,139.5 730.1,141.0 731.5,139.5 733.0,139.0 734.4,141.0 735.8,139.0 737.2,141.5 738.6,141.5 740.0,142.0 748.5,142.0 749.9,141.0 751.3,140.0 752.7,141.0 754.1,142.5 757.0,142.5 758.4,141.0 759.8,140.0 761.2,140.5 762.6,142.5 764.0,140.5 765.4,142.5 766.9,142.0 768.3,142.5 769.7,142.0 771.1,142.5 775.3,142.5 776.7,142.0 778.2,139.0 779.6,142.5 783.8,142.5 785.2,142.0 786.6,141.0 788.0,142.0 789.4,141.5 790.9,140.5 792.3,141.5 793.7,142.5 796.5,142.5 797.9,134.0 799.3,142.0 800.7,140.5 802.2,137.5 803.6,142.0 805.0,140.0 806.4,143.0 809.2,143.0 810.6,142.5 812.0,142.5 813.5,136.5 814.9,142.0 816.3,142.0 817.7,141.5 819.1,142.5 821.9,142.5 823.3,141.5 824.8,143.0 827.6,143.0 829.0,140.5 830.4,143.0 831.8,137.5 833.2,140.5 834.6,138.0 836.1,138.5 837.5,140.0 838.9,139.5 840.3,143.0 841.7,143.0 843.1,142.5 844.5,143.0 845.9,142.5 847.4,143.0 848.8,142.5 850.2,142.5 851.6,141.5 853.0,143.0 854.4,143.0 855.8,140.5 857.2,141.0 858.7,143.0 860.1,142.0 861.5,141.5 862.9,143.0 864.3,142.5 865.7,140.0 867.1,138.5 868.5,142.0 869.9,140.5 871.4,135.0 872.8,140.5 874.2,141.0 875.6,142.0 877.0,142.0 878.4,143.0" fill="#FFC633" stroke-width="0px" />
<polygon points="689.5,143.0 689.5,165.5 692.0,165.5 693.4,166.0 694.8,165.0 697.7,165.0 699.1,166.0 700.5,165.5 701.9,164.5 704.7,164.5 706.1,164.0 707.5,165.0 709.0,165.5 710.4,165.0 711.8,164.5 713.2,164.5 714.6,165.0 716.0,165.0 717.4,164.5 718.8,164.5 720.2,165.5 721.7,163.5 723.1,163.0 727.3,163.0 728.7,163.5 730.1,163.5 731.5,164.0 733.0,163.5 740.0,163.5 741.4,163.0 742.8,163.5 744.3,161.0 745.7,161.0 747.1,160.5 748.5,163.5 749.9,163.5 751.3,164.0 752.7,164.0 754.1,163.0 755.6,164.0 757.0,165.0 758.4,165.5 759.8,164.5 761.2,167.0 762.6,164.0 764.0,164.5 765.4,164.0 766.9,164.0 768.3,163.5 771.1,163.5 772.5,164.0 775.3,164.0 776.7,164.5 778.2,165.5 779.6,165.5 781.0,166.0 788.0,166.0 789.4,167.5 790.9,167.5 792.3,167.0 793.7,167.0 795.1,167.5 796.5,167.0 797.9,169.5 799.3,169.0 800.7,169.5 802.2,169.0 803.6,168.5 805.0,169.0 806.4,169.5 809.2,169.5 810.6,170.5 812.0,169.5 813.5,170.0 814.9,170.0 816.3,169.0 817.7,170.5 819.1,169.5 823.3,169.5 824.8,170.0 826.2,170.0 827.6,169.5 829.0,170.5 830.4,170.0 831.8,170.5 833.2,171.0 834.6,169.5 836.1,169.5 837.5,170.0 838.9,171.5 840.3,171.0 848.8,171.0 850.2,171.5 855.8,171.5 857.2,171.0 858.7,171.0 860.1,171.5 861.5,172.0 862.9,172.5 864.3,173.0 865.7,173.0 867.1,173.5 868.5,174.0 869.9,174.5 871.4,174.5 872.8,174.0 874.2,172.5 875.6,172.0 877.0,171.5 878.4,143.0" fill="#33A0FF" stroke-width="0px" />
<polygon points="881.4,143.0 881.4,140.5 881.6,138.0 883.0,138.5 884.4,141.5 885.8,141.5 887.2,140.5 888.6,141.5 890.0,132.0 891.4,138.5 892.9,141.5 894.3,141.0 895.7,141.0 897.1,140.0 898.5,140.0 899.9,137.5 901.3,140.5 902.7,139.0 904.2,139.5 905.6,140.0 907.0,139.0 908.4,140.0 909.8,141.5 911.2,140.0 912.6,141.5 914.0,134.0 915.5,141.0 916.9,141.5 918.3,141.0 921.1,141.0 922.5,142.0 923.9,137.0 925.3,139.5 926.8,138.0 928.2,141.0 929.6,137.0 931.0,137.0 932.4,138.5 933.8,141.0 936.6,141.0 938.1,135.5 939.5,133.5 940.9,140.0 942.3,137.5 943.7,136.5 945.1,140.0 946.5,141.0 947.9,140.5 949.3,141.0 950.8,141.0 952.2,140.0 953.6,141.5 955.0,141.5 956.4,139.5 957.8,141.0 959.2,141.5 960.6,136.0 962.1,140.0 963.5,141.5 964.9,139.5 966.3,140.0 967.7,140.5 969.1,140.0 970.5,138.0 971.9,140.5 973.4,141.0 977.6,141.0 979.0,139.5 980.4,137.5 981.8,132.5 983.2,140.5 984.7,140.5 986.1,141.5 987.5,139.5 988.9,135.5 990.3,138.0 991.7,139.5 993.1,143.0 998.8,143.0 999.0,143.0" fill="#FFC633" stroke-width="0px" />
<polygon points="881.4,143.0 881.4,149.5 881.6,150.0 883.0,149.5 884.4,148.5 885.8,148.0 887.2,148.5 888.6,148.0 890.0,148.0 891.4,148.5 892.9,148.0 894.3,147.5 895.7,148.5 897.1,148.0 898.5,147.5 899.9,147.5 901.3,147.0 902.7,147.0 904.2,147.5 905.6,147.5 907.0,154.0 908.4,147.5 909.8,147.0 911.2,147.5 912.6,146.0 915.5,146.0 916.9,144.5 921.1,144.5 922.5,145.0 923.9,146.0 925.3,150.5 926.8,146.0 928.2,144.0 929.6,145.0 931.0,145.0 932.4,145.5 933.8,144.5 935.2,145.0 936.6,144.5 938.1,144.5 939.5,147.0 940.9,144.5 942.3,147.0 943.7,145.5 945.1,145.0 946.5,144.5 947.9,144.0 953.6,144.0 955.0,145.0 956.4,144.5 957.8,145.0 960.6,145.0 962.1,144.0 963.5,144.5 964.9,144.5 966.3,144.0 967.7,144.0 969.1,144.5 970.5,145.0 971.9,144.0 974.8,144.0 976.2,143.5 977.6,143.5 979.0,144.5 980.4,145.0 981.8,143.5 983.2,144.5 984.7,143.5 986.1,143.5 987.5,144.5 988.9,145.5 990.3,144.0 991.7,143.5 993.1,143.0 998.8,143.0 999.0,143.0" fill="#33A0FF" stroke-width="0px" />
<rect x="132.7" y="93" width="1" height="105" class="marker" style="opacity: 0.4; " />
<rect x="117.8" y="198" width="30.0" height="18" class="marker" style="opacity: 0.1; " />
<text x="132.8" y="211" class="marker">EGFR</text>
<rect x="463.4" y="93" width="1" height="105" class="marker" style="opacity: 0.4; " />
<rect x="452.1" y="198" width="22.5" height="18" class="marker" style="opacity: 0.1; " />
<text x="463.4" y="211" class="marker">MYC</text>
<rect x="522.0" y="93" width="1" height="105" class="marker" style="opacity: 0.4; " />
<rect x="499.6" y="198" width="45.0" height="18" class="marker" style="opacity: 0.1; " />
<text x="522.1" y="211" class="marker">CDKN2A</text>
<rect x="892.2" y="93" width="1" height="105" class="marker" style="opacity: 0.4; " />
<rect x="877.3" y="198" width="30.0" height="18" class="marker" style="opacity: 0.1; " />
<text x="892.3" y="211" class="marker">TP53</text>
<text x="999" y="229" class="footer-r">&#169; CC-BY 2001 - 2023 progenetix.org</text>
</svg>