<svg
xmlns="http://www.w3.org/2000/svg"
xmlns:xlink="http://www.w3.org/1999/xlink"
version="1.1"
id="genomeplot"
width="1024px"
height="611px"
style="margin: auto; font-family: Helvetica, sans-serif;">
<style type="text/css"><![CDATA[
.plot-area {fill: None; fill-opacity: 0.8;}
  .title-left {text-anchor: end; fill: None; font-size: 7.8px;}
  .footer-r {text-anchor: end; fill: None; font-size: 10px;}
  .footer-l {text-anchor: start; fill: None; font-size: 10px;}
]]></style>
<rect x="0" y="0" width="1024" height="611" style="fill: None" />

<linearGradient id="genomeplotgpos100" x1="0%" x2="0%" y1="0%" y2="80%" spreadMethod="reflect">
  <stop offset="0%" stop-color="rgb(39,39,39)" />
  <stop offset="100%" stop-color="rgb(0,0,0)" />
</linearGradient>
<linearGradient id="genomeplotgpos75" x1="0%" x2="0%" y1="0%" y2="80%" spreadMethod="reflect">
  <stop offset="0%" stop-color="rgb(87,87,87)" />
  <stop offset="100%" stop-color="rgb(39,39,39)" />
</linearGradient>
<linearGradient id="genomeplotgpos50" x1="0%" x2="0%" y1="0%" y2="80%" spreadMethod="reflect">
  <stop offset="0%" stop-color="rgb(196,196,196)" />
  <stop offset="100%" stop-color="rgb(111,111,111)" />
</linearGradient>
<linearGradient id="genomeplotgpos25" x1="0%" x2="0%" y1="0%" y2="80%" spreadMethod="reflect">
  <stop offset="0%" stop-color="rgb(223,223,223)" />
  <stop offset="100%" stop-color="rgb(196,196,196)" />
</linearGradient>
<linearGradient id="genomeplotgneg" x1="0%" x2="0%" y1="0%" y2="80%" spreadMethod="reflect">
  <stop offset="0%" stop-color="white" />
  <stop offset="100%" stop-color="rgb(223,223,223)" />
</linearGradient>
<linearGradient id="genomeplotgvar" x1="0%" x2="0%" y1="0%" y2="80%" spreadMethod="reflect">
  <stop offset="0%" stop-color="rgb(196,196,196)" />
  <stop offset="100%" stop-color="rgb(111,111,111)" />
</linearGradient>
<linearGradient id="genomeplotstalk" x1="0%" x2="0%" y1="0%" y2="80%" spreadMethod="reflect">
  <stop offset="0%" stop-color="rgb(39,39,39)" />
  <stop offset="100%" stop-color="rgb(0,0,0)" />
</linearGradient>
<linearGradient id="genomeplotacen" x1="0%" x2="0%" y1="0%" y2="80%" spreadMethod="reflect">
  <stop offset="0%" stop-color="rgb(163,55,247)" />
  <stop offset="100%" stop-color="rgb(138,43,226)" />
</linearGradient>
<text x="612.0" y="41" style="text-anchor: middle; font-size: 16px">None</text>
<text x="301.4543118808825" y="73" style="text-anchor: middle; font-size: 10px">1</text>
<text x="356.6443051321279" y="73" style="text-anchor: middle; font-size: 10px">2</text>
<text x="406.4510338779222" y="73" style="text-anchor: middle; font-size: 10px">3</text>
<text x="450.7344345713706" y="73" style="text-anchor: middle; font-size: 10px">4</text>
<text x="493.23719093791146" y="73" style="text-anchor: middle; font-size: 10px">5</text>
<text x="533.677576233471" y="73" style="text-anchor: middle; font-size: 10px">6</text>
<text x="571.7597911694254" y="73" style="text-anchor: middle; font-size: 10px">7</text>
<text x="607.1145733626503" y="73" style="text-anchor: middle; font-size: 10px">8</text>
<text x="640.2430580534142" y="73" style="text-anchor: middle; font-size: 10px">9</text>
<text x="672.1664161205964" y="73" style="text-anchor: middle; font-size: 10px">10</text>
<text x="703.7382533225665" y="73" style="text-anchor: middle; font-size: 10px">11</text>
<text x="735.2546103725159" y="73" style="text-anchor: middle; font-size: 10px">12</text>
<text x="764.5689996083419" y="73" style="text-anchor: middle; font-size: 10px">13</text>
<text x="791.0959986500488" y="73" style="text-anchor: middle; font-size: 10px">14</text>
<text x="816.3082178783975" y="73" style="text-anchor: middle; font-size: 10px">15</text>
<text x="839.7453105850914" y="73" style="text-anchor: middle; font-size: 10px">16</text>
<text x="861.1917399929295" y="73" style="text-anchor: middle; font-size: 10px">17</text>
<text x="881.579274020468" y="73" style="text-anchor: middle; font-size: 10px">18</text>
<text x="899.3485602036494" y="73" style="text-anchor: middle; font-size: 10px">19</text>
<text x="915.4252053528132" y="73" style="text-anchor: middle; font-size: 10px">20</text>
<text x="930.2365357347803" y="73" style="text-anchor: middle; font-size: 10px">21</text>
<text x="943.5999882590673" y="73" style="text-anchor: middle; font-size: 10px">22</text>
<rect x="275" y="93" width="674" height="480" class="plot-area" />
<text x="269" y="102.6" class="title-left">pgxbs-kftvhzja (pgxcs-kftw2bep)</text>
<text x="269" y="114.6" class="title-left">pgxbs-kftvhm1j (pgxcs-kftvy3r7)</text>
<text x="269" y="126.6" class="title-left">pgxbs-kftvhi91 (pgxcs-kftvwx7s)</text>
<text x="269" y="138.6" class="title-left">pgxbs-kftvhrya (pgxcs-kftvzyyk)</text>
<text x="269" y="150.6" class="title-left">pgxbs-kftvhtbb (pgxcs-kftw0eqi)</text>
<text x="269" y="162.6" class="title-left">pgxbs-kftvhky3 (pgxcs-kftvxre5)</text>
<text x="269" y="174.6" class="title-left">pgxbs-kftvi5du (pgxcs-kftw477e)</text>
<text x="269" y="186.6" class="title-left">pgxbs-kftvhhpq (pgxcs-kftvwr83)</text>
<text x="269" y="198.6" class="title-left">pgxbs-kftvhy91 (pgxcs-kftw1wmb)</text>
<text x="269" y="210.6" class="title-left">pgxbs-kftvhmub (pgxcs-kftvycw9)</text>
<text x="269" y="222.6" class="title-left">pgxbs-kftvhya6 (pgxcs-kftw1wyk)</text>
<text x="269" y="234.6" class="title-left">pgxbs-kftvhkql (pgxcs-kftvxp1h)</text>
<text x="269" y="246.6" class="title-left">pgxbs-kftvhqql (pgxcs-kftvzl2x)</text>
<text x="269" y="258.6" class="title-left">pgxbs-kftvhtwi (pgxcs-kftw0ljo)</text>
<text x="269" y="270.6" class="title-left">pgxbs-kftvhubn (pgxcs-kftw0qez)</text>
<text x="269" y="282.6" class="title-left">pgxbs-kftvi807 (pgxcs-kftw51rc)</text>
<text x="269" y="294.6" class="title-left">pgxbs-kftvhxg8 (pgxcs-kftw1ne5)</text>
<text x="269" y="306.6" class="title-left">pgxbs-kftvhyg0 (pgxcs-kftw1ysu)</text>
<text x="269" y="318.6" class="title-left">pgxbs-kftvhlj0 (pgxcs-kftvxxxx)</text>
<text x="269" y="330.6" class="title-left">pgxbs-kftvhqj8 (pgxcs-kftvziq9)</text>
<text x="269" y="342.6" class="title-left">pgxbs-kftvhxa7 (pgxcs-kftw1lin)</text>
<text x="269" y="354.6" class="title-left">pgxbs-kftvhqi3 (pgxcs-kftvzie4)</text>
<text x="269" y="366.6" class="title-left">pgxbs-kftvhouu (pgxcs-kftvyzpj)</text>
<text x="269" y="378.6" class="title-left">pgxbs-kftvhouu (pgxcs-kftw034x)</text>
<text x="269" y="390.6" class="title-left">pgxbs-kftvi875 (pgxcs-kftw5404)</text>
<text x="269" y="402.6" class="title-left">pgxbs-kftvi09p (pgxcs-kftw2jxa)</text>
<text x="269" y="414.6" class="title-left">pgxbs-kftvi9wh (pgxcs-kftw5kpm)</text>
<text x="269" y="426.6" class="title-left">pgxbs-kftvhrri (pgxcs-kftvzwuj)</text>
<text x="269" y="438.6" class="title-left">pgxbs-kftvi72v (pgxcs-kftw4r1o)</text>
<text x="269" y="450.6" class="title-left">pgxbs-kftvhnok (pgxcs-kftvymeh)</text>
<text x="269" y="462.6" class="title-left">pgxbs-kftvhnxr (pgxcs-kftvyp91)</text>
<text x="269" y="474.6" class="title-left">pgxbs-kftvhj3k (pgxcs-kftvx6mu)</text>
<text x="269" y="486.6" class="title-left">pgxbs-kftvhjm8 (pgxcs-kftvxcfb)</text>
<text x="269" y="498.6" class="title-left">pgxbs-kftvhk9p (pgxcs-kftvxjrr)</text>
<text x="269" y="510.6" class="title-left">pgxbs-kftvhm4o (pgxcs-kftvy4r4)</text>
<text x="269" y="522.6" class="title-left">pgxbs-kftvhm1b (pgxcs-kftvy3ot)</text>
<text x="269" y="534.6" class="title-left">pgxbs-kftvhwt2 (pgxcs-kftw1fxt)</text>
<text x="269" y="546.6" class="title-left">pgxbs-kftvi2re (pgxcs-kftw3cmr)</text>
<text x="269" y="558.6" class="title-left">pgxbs-kftvhumf (pgxcs-kftw0tvw)</text>
<text x="269" y="570.6" class="title-left">pgxbs-kftvi0a0 (pgxcs-kftw2k0p)</text>
<polyline points=" 949.0,123.0 956.2,123.0 956.2,135.0 949.0,135.0" fill="none" stroke="None" stroke-width="0.5px" />
<polyline points=" 949.0,111.0 959.3,111.0 959.3,129.0 956.2,129.0" fill="none" stroke="None" stroke-width="0.5px" />
<polyline points=" 949.0,99.0 960.9,99.0 960.9,120.0 959.3,120.0" fill="none" stroke="None" stroke-width="0.5px" />
<polyline points=" 949.0,159.0 957.5,159.0 957.5,171.0 949.0,171.0" fill="none" stroke="None" stroke-width="0.5px" />
<polyline points=" 949.0,147.0 961.5,147.0 961.5,165.0 957.5,165.0" fill="none" stroke="None" stroke-width="0.5px" />
<polyline points=" 960.9,109.5 964.1,109.5 964.1,156.0 961.5,156.0" fill="none" stroke="None" stroke-width="0.5px" />
<polyline points=" 949.0,231.0 953.7,231.0 953.7,243.0 949.0,243.0" fill="none" stroke="None" stroke-width="0.5px" />
<polyline points=" 949.0,219.0 957.1,219.0 957.1,237.0 953.7,237.0" fill="none" stroke="None" stroke-width="0.5px" />
<polyline points=" 949.0,207.0 960.4,207.0 960.4,228.0 957.1,228.0" fill="none" stroke="None" stroke-width="0.5px" />
<polyline points=" 949.0,195.0 962.4,195.0 962.4,217.5 960.4,217.5" fill="none" stroke="None" stroke-width="0.5px" />
<polyline points=" 949.0,183.0 964.4,183.0 964.4,206.2 962.4,206.2" fill="none" stroke="None" stroke-width="0.5px" />
<polyline points=" 964.1,132.8 967.5,132.8 967.5,194.6 964.4,194.6" fill="none" stroke="None" stroke-width="0.5px" />
<polyline points=" 949.0,267.0 969.6,267.0 969.6,279.0 949.0,279.0" fill="none" stroke="None" stroke-width="0.5px" />
<polyline points=" 949.0,255.0 971.8,255.0 971.8,273.0 969.6,273.0" fill="none" stroke="None" stroke-width="0.5px" />
<polyline points=" 949.0,291.0 967.8,291.0 967.8,303.0 949.0,303.0" fill="none" stroke="None" stroke-width="0.5px" />
<polyline points=" 949.0,315.0 969.7,315.0 969.7,327.0 949.0,327.0" fill="none" stroke="None" stroke-width="0.5px" />
<polyline points=" 967.8,297.0 975.0,297.0 975.0,321.0 969.7,321.0" fill="none" stroke="None" stroke-width="0.5px" />
<polyline points=" 971.8,264.0 978.2,264.0 978.2,309.0 975.0,309.0" fill="none" stroke="None" stroke-width="0.5px" />
<polyline points=" 949.0,363.0 951.3,363.0 951.3,375.0 949.0,375.0" fill="none" stroke="None" stroke-width="0.5px" />
<polyline points=" 949.0,351.0 967.4,351.0 967.4,369.0 951.3,369.0" fill="none" stroke="None" stroke-width="0.5px" />
<polyline points=" 949.0,399.0 966.4,399.0 966.4,411.0 949.0,411.0" fill="none" stroke="None" stroke-width="0.5px" />
<polyline points=" 949.0,387.0 968.1,387.0 968.1,405.0 966.4,405.0" fill="none" stroke="None" stroke-width="0.5px" />
<polyline points=" 967.4,360.0 971.2,360.0 971.2,396.0 968.1,396.0" fill="none" stroke="None" stroke-width="0.5px" />
<polyline points=" 949.0,339.0 973.0,339.0 973.0,378.0 971.2,378.0" fill="none" stroke="None" stroke-width="0.5px" />
<polyline points=" 949.0,423.0 970.4,423.0 970.4,435.0 949.0,435.0" fill="none" stroke="None" stroke-width="0.5px" />
<polyline points=" 949.0,447.0 971.7,447.0 971.7,459.0 949.0,459.0" fill="none" stroke="None" stroke-width="0.5px" />
<polyline points=" 970.4,429.0 974.1,429.0 974.1,453.0 971.7,453.0" fill="none" stroke="None" stroke-width="0.5px" />
<polyline points=" 949.0,483.0 970.0,483.0 970.0,495.0 949.0,495.0" fill="none" stroke="None" stroke-width="0.5px" />
<polyline points=" 949.0,471.0 971.0,471.0 971.0,489.0 970.0,489.0" fill="none" stroke="None" stroke-width="0.5px" />
<polyline points=" 949.0,531.0 969.3,531.0 969.3,543.0 949.0,543.0" fill="none" stroke="None" stroke-width="0.5px" />
<polyline points=" 949.0,519.0 970.2,519.0 970.2,537.0 969.3,537.0" fill="none" stroke="None" stroke-width="0.5px" />
<polyline points=" 949.0,507.0 971.2,507.0 971.2,528.0 970.2,528.0" fill="none" stroke="None" stroke-width="0.5px" />
<polyline points=" 971.0,480.0 973.1,480.0 973.1,517.5 971.2,517.5" fill="none" stroke="None" stroke-width="0.5px" />
<polyline points=" 949.0,555.0 973.8,555.0 973.8,567.0 949.0,567.0" fill="none" stroke="None" stroke-width="0.5px" />
<polyline points=" 973.1,498.8 975.3,498.8 975.3,561.0 973.8,561.0" fill="none" stroke="None" stroke-width="0.5px" />
<polyline points=" 974.1,441.0 976.3,441.0 976.3,529.9 975.3,529.9" fill="none" stroke="None" stroke-width="0.5px" />
<polyline points=" 973.0,358.5 981.1,358.5 981.1,485.4 976.3,485.4" fill="none" stroke="None" stroke-width="0.5px" />
<polyline points=" 978.2,286.5 985.9,286.5 985.9,422.0 981.1,422.0" fill="none" stroke="None" stroke-width="0.5px" />
<polyline points=" 967.5,163.7 999.0,163.7 999.0,354.2 985.9,354.2" fill="none" stroke="None" stroke-width="0.5px" />
<text x="949" y="586" class="footer-r">&#169; CC-BY 2001 - 2023 progenetix.org</text>
<text x="275" y="586" class="footer-l">40 samples</text>
</svg>