<svg
xmlns="http://www.w3.org/2000/svg"
xmlns:xlink="http://www.w3.org/1999/xlink"
version="1.1"
id="genomeplot"
width="1024px"
height="231px"
style="margin: auto; font-family: Helvetica, sans-serif;">
<style type="text/css"><![CDATA[
.plot-area {fill: None; fill-opacity: 0.8;}
  .title-left {text-anchor: end; fill: None; font-size: 7.8px;}
  .label-y {text-anchor: end; fill: None; font-size: 8px;}
  .gridline {stroke-width: 1px; stroke: None; opacity: 0.8 ; }
  .footer-r {text-anchor: end; fill: None; font-size: 10px;}
  .footer-l {text-anchor: start; fill: None; font-size: 10px;}
]]></style>
<rect x="0" y="0" width="1024" height="231" style="fill: None" />

<linearGradient id="genomeplotgpos100" x1="0%" x2="0%" y1="0%" y2="80%" spreadMethod="reflect">
  <stop offset="0%" stop-color="rgb(39,39,39)" />
  <stop offset="100%" stop-color="rgb(0,0,0)" />
</linearGradient>
<linearGradient id="genomeplotgpos75" x1="0%" x2="0%" y1="0%" y2="80%" spreadMethod="reflect">
  <stop offset="0%" stop-color="rgb(87,87,87)" />
  <stop offset="100%" stop-color="rgb(39,39,39)" />
</linearGradient>
<linearGradient id="genomeplotgpos50" x1="0%" x2="0%" y1="0%" y2="80%" spreadMethod="reflect">
  <stop offset="0%" stop-color="rgb(196,196,196)" />
  <stop offset="100%" stop-color="rgb(111,111,111)" />
</linearGradient>
<linearGradient id="genomeplotgpos25" x1="0%" x2="0%" y1="0%" y2="80%" spreadMethod="reflect">
  <stop offset="0%" stop-color="rgb(223,223,223)" />
  <stop offset="100%" stop-color="rgb(196,196,196)" />
</linearGradient>
<linearGradient id="genomeplotgneg" x1="0%" x2="0%" y1="0%" y2="80%" spreadMethod="reflect">
  <stop offset="0%" stop-color="white" />
  <stop offset="100%" stop-color="rgb(223,223,223)" />
</linearGradient>
<linearGradient id="genomeplotgvar" x1="0%" x2="0%" y1="0%" y2="80%" spreadMethod="reflect">
  <stop offset="0%" stop-color="rgb(196,196,196)" />
  <stop offset="100%" stop-color="rgb(111,111,111)" />
</linearGradient>
<linearGradient id="genomeplotstalk" x1="0%" x2="0%" y1="0%" y2="80%" spreadMethod="reflect">
  <stop offset="0%" stop-color="rgb(39,39,39)" />
  <stop offset="100%" stop-color="rgb(0,0,0)" />
</linearGradient>
<linearGradient id="genomeplotacen" x1="0%" x2="0%" y1="0%" y2="80%" spreadMethod="reflect">
  <stop offset="0%" stop-color="rgb(163,55,247)" />
  <stop offset="100%" stop-color="rgb(138,43,226)" />
</linearGradient>
<text x="527.0" y="41" style="text-anchor: middle; font-size: 16px"></text>
<text x="93.14443333397304" y="73" style="text-anchor: middle; font-size: 10px">1</text>
<text x="171.39710772733986" y="73" style="text-anchor: middle; font-size: 10px">2</text>
<text x="241.88766095981916" y="73" style="text-anchor: middle; font-size: 10px">3</text>
<text x="304.4141356094559" y="73" style="text-anchor: middle; font-size: 10px">4</text>
<text x="364.3731018270049" y="73" style="text-anchor: middle; font-size: 10px">5</text>
<text x="421.35833823516845" y="73" style="text-anchor: middle; font-size: 10px">6</text>
<text x="474.9433322753907" y="73" style="text-anchor: middle; font-size: 10px">7</text>
<text x="524.5956450613663" y="73" style="text-anchor: middle; font-size: 10px">8</text>
<text x="571.0378627578689" y="73" style="text-anchor: middle; font-size: 10px">9</text>
<text x="615.7424101509746" y="73" style="text-anchor: middle; font-size: 10px">10</text>
<text x="659.9401001263193" y="73" style="text-anchor: middle; font-size: 10px">11</text>
<text x="704.0577933521873" y="73" style="text-anchor: middle; font-size: 10px">12</text>
<text x="745.0004724303587" y="73" style="text-anchor: middle; font-size: 10px">13</text>
<text x="781.9240176934419" y="73" style="text-anchor: middle; font-size: 10px">14</text>
<text x="816.9517838803079" y="73" style="text-anchor: middle; font-size: 10px">15</text>
<text x="849.4199977503525" y="73" style="text-anchor: middle; font-size: 10px">16</text>
<text x="879.0178771420143" y="73" style="text-anchor: middle; font-size: 10px">17</text>
<text x="907.0889368445698" y="73" style="text-anchor: middle; font-size: 10px">18</text>
<text x="931.384748837013" y="73" style="text-anchor: middle; font-size: 10px">19</text>
<text x="953.2399442157583" y="73" style="text-anchor: middle; font-size: 10px">20</text>
<text x="973.2706840954849" y="73" style="text-anchor: middle; font-size: 10px">21</text>
<text x="991.2137310249396" y="73" style="text-anchor: middle; font-size: 10px">22</text>
<rect x="55" y="93" width="944" height="100" class="plot-area" />
<line x1="22"  y1="143.0"  x2="999"  y2="143.0" class="gridline" />
<line x1="55" y1="155.5" x2="999" y2="155.5" class="gridline" />
<text x="52" y="159.5" class="label-y">25%</text>
<line x1="55" y1="130.5" x2="999" y2="130.5" class="gridline" />
<text x="52" y="134.5" class="label-y">25%</text>
<line x1="55" y1="168.0" x2="999" y2="168.0" class="gridline" />
<text x="52" y="172.0" class="label-y">50%</text>
<line x1="55" y1="118.0" x2="999" y2="118.0" class="gridline" />
<text x="52" y="122.0" class="label-y">50%</text>
<line x1="55" y1="180.5" x2="999" y2="180.5" class="gridline" />
<text x="52" y="184.5" class="label-y">75%</text>
<line x1="55" y1="105.5" x2="999" y2="105.5" class="gridline" />
<text x="52" y="109.5" class="label-y">75%</text>
<polygon points="55,143.0 131.3,143.0" fill="#FFC633" stroke-width="0px" />
<polygon points="55,143.0 131.3,143.0" fill="#33A0FF" stroke-width="0px" />
<polygon points="134.3,143.0 208.5,143.0" fill="#FFC633" stroke-width="0px" />
<polygon points="134.3,143.0 208.5,143.0" fill="#33A0FF" stroke-width="0px" />
<polygon points="211.5,143.0 272.3,143.0" fill="#FFC633" stroke-width="0px" />
<polygon points="211.5,143.0 272.3,143.0" fill="#33A0FF" stroke-width="0px" />
<polygon points="275.3,143.0 333.6,143.0" fill="#FFC633" stroke-width="0px" />
<polygon points="275.3,143.0 333.6,143.0" fill="#33A0FF" stroke-width="0px" />
<polygon points="336.6,143.0 392.2,143.0" fill="#FFC633" stroke-width="0px" />
<polygon points="336.6,143.0 392.2,143.0" fill="#33A0FF" stroke-width="0px" />
<polygon points="395.2,143.0 447.5,143.0" fill="#FFC633" stroke-width="0px" />
<polygon points="395.2,143.0 447.5,143.0" fill="#33A0FF" stroke-width="0px" />
<polygon points="450.5,143.0 499.4,143.0" fill="#FFC633" stroke-width="0px" />
<polygon points="450.5,143.0 499.4,143.0" fill="#33A0FF" stroke-width="0px" />
<polygon points="502.4,143.0 546.8,143.0" fill="#FFC633" stroke-width="0px" />
<polygon points="502.4,143.0 546.8,143.0" fill="#33A0FF" stroke-width="0px" />
<polygon points="549.8,143.0 592.2,143.0" fill="#FFC633" stroke-width="0px" />
<polygon points="549.8,143.0 592.2,143.0" fill="#33A0FF" stroke-width="0px" />
<polygon points="595.2,143.0 636.2,143.0" fill="#FFC633" stroke-width="0px" />
<polygon points="595.2,143.0 636.2,143.0" fill="#33A0FF" stroke-width="0px" />
<polygon points="639.2,143.0 680.6,143.0" fill="#FFC633" stroke-width="0px" />
<polygon points="639.2,143.0 680.6,143.0" fill="#33A0FF" stroke-width="0px" />
<polygon points="683.6,143.0 724.5,143.0" fill="#FFC633" stroke-width="0px" />
<polygon points="683.6,143.0 724.5,143.0" fill="#33A0FF" stroke-width="0px" />
<polygon points="727.5,143.0 762.5,143.0" fill="#FFC633" stroke-width="0px" />
<polygon points="727.5,143.0 762.5,143.0" fill="#33A0FF" stroke-width="0px" />
<polygon points="765.5,143.0 798.3,143.0" fill="#FFC633" stroke-width="0px" />
<polygon points="765.5,143.0 798.3,143.0" fill="#33A0FF" stroke-width="0px" />
<polygon points="801.3,143.0 832.6,143.0" fill="#FFC633" stroke-width="0px" />
<polygon points="801.3,143.0 832.6,143.0" fill="#33A0FF" stroke-width="0px" />
<polygon points="835.6,143.0 863.3,143.0" fill="#FFC633" stroke-width="0px" />
<polygon points="835.6,143.0 863.3,143.0" fill="#33A0FF" stroke-width="0px" />
<polygon points="866.3,143.0 891.8,143.0" fill="#FFC633" stroke-width="0px" />
<polygon points="866.3,143.0 891.8,143.0" fill="#33A0FF" stroke-width="0px" />
<polygon points="894.8,143.0 919.4,143.0" fill="#FFC633" stroke-width="0px" />
<polygon points="894.8,143.0 919.4,143.0" fill="#33A0FF" stroke-width="0px" />
<polygon points="922.4,143.0 940.4,143.0" fill="#FFC633" stroke-width="0px" />
<polygon points="922.4,143.0 940.4,143.0" fill="#33A0FF" stroke-width="0px" />
<polygon points="943.4,143.0 963.1,143.0" fill="#FFC633" stroke-width="0px" />
<polygon points="943.4,143.0 963.1,143.0" fill="#33A0FF" stroke-width="0px" />
<polygon points="966.1,143.0 980.4,143.0" fill="#FFC633" stroke-width="0px" />
<polygon points="966.1,143.0 980.4,143.0" fill="#33A0FF" stroke-width="0px" />
<polygon points="983.4,143.0 999.0,143.0" fill="#FFC633" stroke-width="0px" />
<polygon points="983.4,143.0 999.0,143.0" fill="#33A0FF" stroke-width="0px" />
<text x="999" y="206" class="footer-r">&#169; CC-BY 2001 - 2023 progenetix.org</text>
</svg>